<svg width="30" height="41" viewBox="0 0 30 41" fill="none" xmlns="http://www.w3.org/2000/svg">
<path d="M29.439 36.9375C29.439 35.9531 29.0562 35.1055 28.3452 34.3672C27.6069 33.6562 26.7593 33.2734 25.7749 33.2734C24.7905 33.2734 23.9429 33.6562 23.2046 34.3672C22.4937 35.1055 22.1108 35.9531 22.1108 36.9375C22.1108 37.9219 22.4937 38.7695 23.2046 39.4805C23.9429 40.1914 24.7905 40.5469 25.7749 40.5469C26.7593 40.5469 27.6069 40.1914 28.3452 39.4805C29.0562 38.7695 29.439 37.9219 29.439 36.9375Z" fill="#BFA372"/>
<path d="M0.605469 0.789062V40H6.75781V26H16.2734C19.9922 26 23.1367 24.7969 25.6523 22.3359C28.168 19.9023 29.4531 16.9219 29.4531 13.4219C29.4531 9.92188 28.168 6.94141 25.6523 4.48047C23.1367 2.01953 19.9922 0.816406 16.2734 0.816406L0.605469 0.789062ZM16.2734 6.42188C18.1875 6.42188 19.8555 7.07812 21.2227 8.44531C22.5898 9.78516 23.2734 11.4531 23.2734 13.4219C23.2734 15.3906 22.5898 17.0586 21.2227 18.3984C19.8555 19.7383 18.1875 20.3945 16.2734 20.3945H6.75781V6.39453L16.2734 6.42188Z" fill="white"/>
</svg>
