<svg width="1302" height="339" viewBox="0 0 1302 339" fill="none" xmlns="http://www.w3.org/2000/svg">
<g filter="url(#filter0_f_4045_95)">
<path d="M1293.38 77.1375V285.064H1260.76V194.441H1158.25V285.064H1125.62V77.1375H1158.25V164.861H1260.76V77.1375H1293.38Z" fill="white"/>
</g>
<g filter="url(#filter1_f_4045_95)">
<path d="M1066.17 285.064H1033.55V135.137L917.696 285.064H889.567V77.1375H922.191V227.21L1038.04 77.1375H1066.17V285.064ZM978.595 29.7233C984.54 29.7233 989.47 27.8383 993.53 23.7784C997.445 19.8634 999.475 14.9335 999.475 8.84363H1021.66C1021.66 20.7334 1017.6 30.7383 1009.48 38.5681C1001.36 46.543 991.065 50.4579 978.595 50.4579C966.125 50.4579 955.831 46.543 947.711 38.5681C939.591 30.7383 935.531 20.7334 935.531 8.84363H957.861C957.861 14.7885 959.746 19.7184 963.805 23.7784C967.72 27.8383 972.65 29.7233 978.595 29.7233Z" fill="white"/>
</g>
<g filter="url(#filter2_f_4045_95)">
<path d="M648.871 285.064L734.999 77.1375H767.624L853.752 285.064H819.678L797.348 230.11H705.275L682.945 285.064H648.871ZM751.384 114.257L717.165 200.385H785.458L751.384 114.257Z" fill="white"/>
</g>
<g filter="url(#filter3_f_4045_95)">
<path d="M592.612 175.156C593.482 175.591 594.932 176.171 596.672 176.896C598.412 177.621 601.602 179.361 606.096 181.971C610.446 184.581 614.361 187.626 617.841 191.106C621.176 194.585 624.221 199.515 626.976 205.75C629.731 211.985 631.181 218.655 631.181 225.615C631.181 242.87 623.786 257.514 609.286 269.694C594.787 281.874 575.357 287.964 550.997 287.964C541.138 287.964 531.568 286.804 522.433 284.484C513.153 282.164 505.613 279.264 499.668 276.074C493.723 272.884 488.503 269.549 483.864 266.069C479.224 262.734 475.889 259.834 473.714 257.514L470.669 253.89L491.548 233.155C492.128 233.735 493.143 234.605 494.303 235.765C495.463 236.925 498.073 238.955 501.843 241.855C505.613 244.755 509.673 247.365 513.878 249.685C518.228 252.005 523.738 254.034 530.408 255.774C537.223 257.514 544.037 258.384 550.852 258.384C565.787 258.384 577.387 255.049 585.797 248.38C594.207 241.71 598.412 233.735 598.412 224.165C598.412 214.74 594.207 206.765 585.797 200.095C577.387 193.426 565.787 190.091 550.852 190.091H525.623V160.366H550.852C563.032 160.366 572.457 157.611 579.272 152.101C586.232 146.591 589.567 139.776 589.567 131.802C589.567 124.117 586.232 117.592 579.272 112.082C572.457 106.717 563.032 103.962 550.852 103.962C542.153 103.962 533.598 105.847 525.188 109.617C516.778 113.387 510.543 117.012 506.338 120.492L500.393 126.147L479.659 105.412C480.239 104.687 481.254 103.672 482.704 102.222C484.154 100.772 487.053 98.3071 491.548 94.5372C496.188 90.9122 500.973 87.7223 505.903 85.1123C510.978 82.5024 517.648 80.0374 525.768 77.7175C534.033 75.3975 542.443 74.2375 550.852 74.2375C573.037 74.2375 590.437 79.6024 603.197 90.0423C615.956 100.482 622.336 113.532 622.336 129.192C622.336 135.571 621.176 141.516 619.146 147.026C617.116 152.536 614.651 157.031 611.751 160.221C608.851 163.556 606.096 166.456 603.197 168.776C600.297 171.096 597.687 172.836 595.657 173.706L592.612 175.156Z" fill="white"/>
</g>
<g filter="url(#filter4_f_4045_95)">
<path d="M432.244 285.064H399.62V135.137L283.767 285.064H255.637V77.1375H288.262V227.21L404.115 77.1375H432.244V285.064Z" fill="white"/>
</g>
<g filter="url(#filter5_f_4045_95)">
<path d="M8.99652 255.34H20.8863C21.7563 254.615 23.0613 253.31 24.6563 251.425C26.2512 249.54 29.1512 245.19 33.2111 238.52C37.271 231.85 40.751 224.455 43.9409 216.48C47.1309 208.36 50.0308 197.485 52.6408 183.566C55.2507 169.646 56.5557 155.001 56.5557 139.486V77.1375H191.693V255.34H216.923V329.578H184.154V285.064H41.621V329.578H8.99652V255.34ZM89.1802 139.486C89.1802 155.001 87.8752 169.646 85.4102 183.276C82.9453 196.905 80.0453 207.925 76.5654 216.335C73.0854 224.745 69.6055 232.14 66.1256 238.375C62.6456 244.61 59.6007 248.96 57.1357 251.57L53.5108 255.34H158.924V106.862H89.1802V139.486Z" fill="white"/>
</g>
<defs>
<filter id="filter0_f_4045_95" x="1117.02" y="68.5375" width="184.962" height="225.127" filterUnits="userSpaceOnUse" color-interpolation-filters="sRGB">
<feFlood flood-opacity="0" result="BackgroundImageFix"/>
<feBlend mode="normal" in="SourceGraphic" in2="BackgroundImageFix" result="shape"/>
<feGaussianBlur stdDeviation="4.3" result="effect1_foregroundBlur_4045_95"/>
</filter>
<filter id="filter1_f_4045_95" x="880.967" y="0.243628" width="193.807" height="293.42" filterUnits="userSpaceOnUse" color-interpolation-filters="sRGB">
<feFlood flood-opacity="0" result="BackgroundImageFix"/>
<feBlend mode="normal" in="SourceGraphic" in2="BackgroundImageFix" result="shape"/>
<feGaussianBlur stdDeviation="4.3" result="effect1_foregroundBlur_4045_95"/>
</filter>
<filter id="filter2_f_4045_95" x="640.271" y="68.5375" width="222.082" height="225.127" filterUnits="userSpaceOnUse" color-interpolation-filters="sRGB">
<feFlood flood-opacity="0" result="BackgroundImageFix"/>
<feBlend mode="normal" in="SourceGraphic" in2="BackgroundImageFix" result="shape"/>
<feGaussianBlur stdDeviation="4.3" result="effect1_foregroundBlur_4045_95"/>
</filter>
<filter id="filter3_f_4045_95" x="462.069" y="65.6375" width="177.712" height="230.926" filterUnits="userSpaceOnUse" color-interpolation-filters="sRGB">
<feFlood flood-opacity="0" result="BackgroundImageFix"/>
<feBlend mode="normal" in="SourceGraphic" in2="BackgroundImageFix" result="shape"/>
<feGaussianBlur stdDeviation="4.3" result="effect1_foregroundBlur_4045_95"/>
</filter>
<filter id="filter4_f_4045_95" x="247.037" y="68.5375" width="193.807" height="225.127" filterUnits="userSpaceOnUse" color-interpolation-filters="sRGB">
<feFlood flood-opacity="0" result="BackgroundImageFix"/>
<feBlend mode="normal" in="SourceGraphic" in2="BackgroundImageFix" result="shape"/>
<feGaussianBlur stdDeviation="4.3" result="effect1_foregroundBlur_4045_95"/>
</filter>
<filter id="filter5_f_4045_95" x="0.396521" y="68.5375" width="225.127" height="269.641" filterUnits="userSpaceOnUse" color-interpolation-filters="sRGB">
<feFlood flood-opacity="0" result="BackgroundImageFix"/>
<feBlend mode="normal" in="SourceGraphic" in2="BackgroundImageFix" result="shape"/>
<feGaussianBlur stdDeviation="4.3" result="effect1_foregroundBlur_4045_95"/>
</filter>
</defs>
</svg>
