<svg width="926" height="215" viewBox="0 0 926 215" fill="none" xmlns="http://www.w3.org/2000/svg">
<path d="M802.086 211V3.07349H925.189V12.0633H810.931V211H802.086Z" fill="white"/>
<path d="M684.784 142.706L751.482 3.07349H760.327L680.144 170.981C673.039 185.77 665.499 196.5 657.669 203.46C649.839 210.42 640.559 213.9 629.829 213.9C627.22 213.9 624.465 213.755 621.71 213.175C618.955 212.74 616.925 212.16 615.62 211.58L613.445 211V202.155C618.375 204.185 623.74 205.055 629.829 205.055C647.519 205.055 661.584 193.745 671.734 170.981L680.289 151.551L600.105 3.07349H609.095L684.784 142.706Z" fill="white"/>
<path d="M558.636 3.07349V211.145H549.791V12.2083H442.927V65.5674C442.927 95.4369 441.478 120.522 438.868 140.966C436.113 161.411 432.343 176.781 427.413 186.93C422.483 197.08 417.118 204.185 411.608 208.1C406.098 212.015 399.573 214.045 392.323 214.045C389.713 214.045 386.958 213.755 384.203 213.32C381.449 212.74 379.419 212.305 378.114 211.725L376.084 211.145V202.3C381.014 204.185 385.943 205.2 390.873 205.2C396.963 205.2 402.328 203.315 406.968 199.835C411.608 196.21 416.248 189.685 420.598 180.261C424.948 170.691 428.138 156.336 430.458 137.196C432.778 117.912 433.938 93.987 433.938 65.4224V3.07349H558.636Z" fill="white"/>
<path d="M174.102 107.037C174.102 77.6022 184.252 52.5177 204.696 31.638C225.286 10.7584 249.646 0.318542 277.92 0.318542C288.505 0.318542 298.655 1.76851 308.37 4.81346C318.23 7.85841 326.349 11.6283 332.729 15.9783C339.109 20.3282 344.764 24.8231 349.694 29.173C354.624 33.523 358.249 37.1479 360.424 40.0479L364.049 44.8328L356.509 50.7777C355.784 49.6177 354.769 48.0227 353.319 46.1378C352.014 44.2528 348.824 40.9179 343.894 36.2779C338.964 31.493 333.599 27.2881 328.089 23.6631C322.579 19.8932 315.185 16.5583 306.05 13.6583C297.06 10.6134 287.635 9.16339 277.92 9.16339C251.821 9.16339 229.491 18.5882 210.786 37.7279C192.227 56.7226 182.802 79.9222 182.802 107.182C182.802 134.441 192.227 157.641 210.786 176.636C229.346 195.63 251.821 205.2 277.92 205.2C287.635 205.2 296.915 203.75 305.905 200.85C314.895 197.95 322.434 194.615 328.234 190.555C334.034 186.495 339.254 182.435 343.604 178.376C348.099 174.316 351.289 170.691 353.319 167.791L356.509 163.586L364.049 169.531C363.324 170.691 362.164 172.286 360.569 174.316C358.974 176.346 355.494 179.826 349.984 185.045C344.474 190.12 338.674 194.615 332.584 198.53C326.494 202.59 318.374 206.07 308.515 209.26C298.655 212.45 288.36 213.9 277.92 213.9C249.646 213.9 225.286 203.46 204.841 182.58C184.252 161.701 174.102 136.616 174.102 107.037Z" fill="white"/>
<path d="M85.0735 142.706L151.772 3.07349H160.617L80.4336 170.981C73.3287 185.77 65.7888 196.5 57.9589 203.46C50.1291 210.42 40.8492 213.9 30.1194 213.9C27.5094 213.9 24.7545 213.755 21.9995 213.175C19.2446 212.74 17.2146 212.16 15.9096 211.58L13.7347 211V202.155C18.6646 204.185 24.0295 205.055 30.1194 205.055C47.8091 205.055 61.8739 193.745 72.0237 170.981L80.5786 151.551L0.394897 3.07349H9.38475L85.0735 142.706Z" fill="white"/>
</svg>
