<svg width="993" height="220" viewBox="0 0 993 220" fill="none" xmlns="http://www.w3.org/2000/svg">
<path d="M992.373 110.037C992.373 140.196 980.918 166.006 958.154 187.61C935.389 209.215 907.114 219.945 873.475 219.945C839.835 219.945 811.561 209.215 788.796 187.61C766.032 166.006 754.722 140.196 754.722 110.037C754.722 80.0223 766.032 54.2127 788.796 32.6081C811.561 11.0034 839.835 0.128601 873.475 0.128601C907.114 0.128601 935.389 11.0034 958.154 32.6081C980.918 54.2127 992.373 80.0223 992.373 110.037ZM915.089 110.182C915.089 99.1619 910.884 89.4471 902.619 81.0372C894.21 72.6274 884.495 68.4225 873.475 68.4225C862.455 68.4225 852.74 72.6274 844.475 81.0372C836.066 89.4471 832.006 99.1619 832.006 110.182C832.006 121.202 836.066 130.916 844.475 139.181C852.74 147.591 862.455 151.651 873.475 151.651C884.495 151.651 894.21 147.591 902.619 139.181C910.884 130.916 915.089 121.202 915.089 110.182Z" fill="white"/>
<path d="M552.885 6.07349H655.399C680.918 6.07349 701.363 13.3234 716.878 27.8231C732.247 42.3229 740.077 60.7376 740.077 83.3572C740.077 105.977 732.247 124.392 716.878 138.891C701.363 153.391 680.918 160.496 655.399 160.496H630.169V214H552.885V6.07349ZM649.454 71.4674H630.169V95.247H649.454C652.934 95.247 656.124 94.087 658.734 91.622C661.344 89.1571 662.794 86.4021 662.794 83.3572C662.794 80.4572 661.344 77.7023 658.734 75.2373C656.124 72.7724 652.934 71.4674 649.454 71.4674Z" fill="white"/>
<path d="M523.306 110.182C523.306 141.501 512.721 167.601 491.841 188.48C470.817 209.505 444.717 219.945 413.543 219.945C398.028 219.945 383.818 217.335 370.768 211.97C357.719 206.605 347.569 200.225 340.174 192.685C332.779 185.146 326.544 177.606 321.324 170.066C316.104 162.526 312.624 156.146 310.739 150.781L307.984 142.661H291.745V214H214.461V6.0735H291.745V74.3674H307.984C308.564 72.4824 309.434 69.8724 310.884 66.3925C312.334 63.0575 315.814 57.1126 321.324 48.5578C326.834 40.1479 333.214 32.6081 340.319 26.0832C347.424 19.5583 357.574 13.6134 370.623 8.24847C383.673 2.88356 398.028 0.128601 413.543 0.128601C444.862 0.128601 470.962 10.7134 491.841 31.7381C512.721 52.7627 523.306 78.8623 523.306 110.182ZM446.167 110.037C446.167 98.002 442.832 87.9971 436.162 80.1673C429.492 72.3374 421.953 68.4225 413.398 68.4225C404.843 68.4225 397.303 72.3374 390.633 80.1673C383.963 87.9971 380.773 98.002 380.773 110.037C380.773 122.217 383.963 132.076 390.633 139.906C397.303 147.736 404.843 151.651 413.398 151.651C421.953 151.651 429.492 147.736 436.162 139.906C442.832 132.076 446.167 122.217 446.167 110.037Z" fill="white"/>
<path d="M78.0183 65.5225V77.4123H106.148C130.652 77.4123 150.372 84.0822 165.307 97.132C180.387 110.327 187.781 126.566 187.781 145.706C187.781 164.991 180.387 181.231 165.307 194.28C150.372 207.475 130.652 214 106.148 214H0.734619V6.07349H167.047V65.5225H78.0183ZM78.0183 154.551H100.203C103.103 154.551 105.568 153.681 107.598 151.941C109.628 150.201 110.643 148.171 110.643 145.706C110.643 143.386 109.628 141.211 107.598 139.471C105.568 137.731 103.103 136.861 100.203 136.861H78.0183V154.551Z" fill="white"/>
</svg>
